<svg width="48" height="48" viewBox="0 0 48 48" fill="none" xmlns="http://www.w3.org/2000/svg">
<path fill-rule="evenodd" clip-rule="evenodd" d="M5.39 12.2902L12.068 22.2861C10.062 24.1041 7.766 25.6161 5.518 25.9821C5.382 26.5281 5.298 27.1641 5.298 27.9121C5.298 29.7341 6.36 32.8061 9.288 33.7961C9.704 33.9381 10.06 34.2241 10.29 34.6001C13.614 40.058 18.918 44 24 44C29.08 44 34.888 39.722 37.71 34.6001C37.938 34.2221 38.294 33.9381 38.712 33.7961C41.64 32.8061 42.702 29.7341 42.702 27.9121C42.702 27.3881 42.656 26.9261 42.59 26.4981C40.076 26.4841 37.752 24.7401 35.924 22.3381L42.624 12.3102C46.17 18.0301 48 25.2641 48 32.2601C48 41.736 42.486 45.886 34.048 44.38C30.95 46.722 27.548 48 24 48C20.452 48 17.048 46.724 13.95 44.38C5.514 45.886 0 41.736 0 32.2601C0 25.2561 1.834 18.0142 5.39 12.2902ZM29.61 34.9101C29.606 34.9261 28.172 39.312 24 39.312C19.982 39.312 18.396 34.9261 18.39 34.9101H29.61ZM20.26 26.4941C20.26 24.9441 19.212 23.6881 17.922 23.6881C16.632 23.6881 15.584 24.9441 15.584 26.4941C15.584 28.0421 16.632 29.2981 17.922 29.2981C19.212 29.2981 20.26 28.0421 20.26 26.4941ZM32.416 26.4941C32.416 28.0421 31.368 29.2981 30.078 29.2981C28.788 29.2981 27.74 28.0421 27.74 26.4941C27.74 24.9441 28.788 23.6881 30.078 23.6881C31.368 23.6881 32.416 24.9441 32.416 26.4941ZM42 6.00021C36.098 2.05023 30.014 -0.0257586 24 0.000241252C18.068 0.0262411 12.008 2.11023 6 6.00021L14 18.0002C21.996 15.3862 26.046 15.4182 34 18.0002L42 6.00021ZM25.666 3.00023H22.334V6.33421H19V9.66619H22.334V13.0002H25.666V9.66619H29V6.33421H25.666V3.00023Z" fill="#E13856"/>
</svg>
