<svg width="36" height="48" viewBox="0 0 36 48" fill="none" xmlns="http://www.w3.org/2000/svg">
<path fill-rule="evenodd" clip-rule="evenodd" d="M18 0C11.258 5.732 7.032 6 0 6V29.07C0 38.276 6.406 40.678 18 48C29.594 40.678 36 38.276 36 29.07V6C28.968 6 24.742 5.732 18 0ZM18 5.088C23 8.698 27.11 9.672 32 9.92V29.07C32 35.154 28.628 36.724 18 43.286C7.382 36.73 4 35.156 4 29.07V9.92C8.894 9.672 13 8.698 18 5.088ZM18 13C24.072 13 29 17.928 29 24C29 30.072 24.072 35 18 35C11.928 35 7 30.072 7 24C7 17.928 11.928 13 18 13ZM20 18H16V22H12V26H16V30H20V26H24V22H20V18Z" fill="#E13856"/>
</svg>
