<svg width="48" height="48" viewBox="0 0 48 48" fill="none" xmlns="http://www.w3.org/2000/svg">
<path fill-rule="evenodd" clip-rule="evenodd" d="M36 27.086V23.3L40 19.398V28.772C40 33.554 26.704 48 20.378 48H0V0H33.382L29.258 4H4V44H18.724C27.036 44 24 32 24 32C24 32 36 35.3 36 27.086ZM31.68 7.224C31 7.884 30.964 8.956 31.624 9.638L41.032 0.514C40.7 0.17 40.262 0 39.824 0C39.392 0 38.958 0.166 38.618 0.494L31.68 7.224ZM20 27.292C20 27.106 20.074 26.92 20.214 26.782L21.382 25.648L22.368 26.666L21.202 27.8C21.064 27.934 20.886 28 20.708 28C20.316 28 20 27.68 20 27.292ZM30.062 13.678L26.074 17.544C23.93 19.622 22.836 21.636 21.826 24.446L23.588 26.264C26.426 25.342 28.472 24.312 30.616 22.232L34.604 18.364L30.062 13.678ZM31.42 11.726L41.694 1.762C44.064 -0.538 48 1.186 48 4.434C48 5.406 47.622 6.376 46.868 7.108L36.592 17.068L31.42 11.726ZM18 26H10V28H18V26Z" fill="#E13856"/>
</svg>
