<svg width="48" height="48" viewBox="0 0 48 48" fill="none" xmlns="http://www.w3.org/2000/svg">
<path fill-rule="evenodd" clip-rule="evenodd" d="M0 24C0 37.254 10.75 48 24.008 48C26.17 48 28.256 47.688 30.248 47.152L28.918 43.364C27.344 43.764 25.704 44 24.008 44C12.976 44 4.002 35.028 4.002 24C4.002 12.972 12.976 4 24.008 4C28.478 4 32.594 5.488 35.926 7.978L31.826 12.076L45.856 14.784L43.146 0.758L38.778 5.124C34.706 1.928 29.588 0 24.008 0C10.75 0 0 10.746 0 24ZM22 28V12H26V24H36V28H22ZM47.704 27.684L43.708 27.366C43.506 28.548 43.2 29.692 42.8 30.794L46.4 32.604C47.002 31.036 47.44 29.392 47.704 27.684ZM38.612 43.018L35.786 40.132C34.814 40.844 33.774 41.468 32.676 41.998L34.014 45.796C35.656 45.042 37.196 44.108 38.612 43.018ZM38.766 37.456C39.626 36.514 40.394 35.492 41.064 34.4L44.652 36.206C43.772 37.69 42.74 39.068 41.574 40.322L38.766 37.456ZM43.394 19.282H47.546C47.83 20.71 47.98 22.188 48 23.698L43.97 23.376C43.916 21.97 43.72 20.604 43.394 19.282Z" fill="white"/>
</svg>
