<svg width="72" height="72" viewBox="0 0 72 72" fill="none" xmlns="http://www.w3.org/2000/svg">
<path fill-rule="evenodd" clip-rule="evenodd" d="M57 66H63V30.207C59.52 27.948 55.455 25.68 51.555 24.051C52.542 22.419 53.277 20.484 53.646 18.42C59.109 20.67 64.143 23.679 69 27V66H72V72H0V66H3V27C7.845 23.748 12.894 20.76 18.366 18.51C18.777 20.502 19.527 22.389 20.55 24.099C16.47 25.788 12.708 27.9 9.033 30.219L9 30.24V66H15V51H57V66ZM21 69H30V57H21V69ZM33 69H39V57H33V69ZM42 69H51V57H42V69ZM15 48H21V42H15V48ZM27 48H33V42H27V48ZM39 48H45V42H39V48ZM51 48H57V42H51V48ZM15 39H21V33H15V39ZM27 39H33V33H27V39ZM39 39H45V33H39V39ZM51 39H57V33H51V39ZM36 0C44.28 0 51 6.72 51 15C51 23.28 44.28 30 36 30C27.72 30 21 23.28 21 15C21 6.72 27.72 0 36 0ZM39 12V6H33V12H27V18H33V24H39V18H45V12H39Z" fill="white"/>
</svg>
