<svg width="72" height="60" viewBox="0 0 72 60" fill="none" xmlns="http://www.w3.org/2000/svg">
<path fill-rule="evenodd" clip-rule="evenodd" d="M66 12C69.312 12 72 14.688 72 18V54C72 57.312 69.312 60 66 60H6C2.688 60 0 57.312 0 54V18C0 14.688 2.688 12 6 12H21V6C21 2.688 23.688 0 27 0H45C48.312 0 51 2.688 51 6V12H66ZM66 19.5C66 18.672 65.328 18 64.5 18H7.5C6.672 18 6 18.672 6 19.5V52.5C6 53.328 6.672 54 7.5 54H64.5C65.328 54 66 53.328 66 52.5V19.5ZM39 33H48V39H39V48H33V39H24V33H33V24H39V33ZM43.5 6H28.5C27.672 6 27 6.672 27 7.5V12H45V7.5C45 6.672 44.328 6 43.5 6Z" fill="white"/>
</svg>
