<svg width="54" height="72" viewBox="0 0 54 72" fill="none" xmlns="http://www.w3.org/2000/svg">
<path fill-rule="evenodd" clip-rule="evenodd" d="M27 54.813C19.317 63.252 12.411 69.525 9 72L0 54.492C4.659 50.535 11.265 44.247 15.666 39.462C11.88 33.519 7.497 26.52 7.497 19.368C7.497 15.09 8.967 11.676 11.505 8.325C15.21 3.417 20.793 0 27 0H27.144C33.294 0.054 38.817 3.456 42.495 8.325C45.033 11.676 46.5 15.09 46.5 19.368C46.5 26.52 42.12 33.519 38.334 39.462C42.735 44.247 49.341 50.535 54 54.492L45 72C41.643 69.561 34.899 63.447 27.36 55.206L27 54.813ZM27 16.674H26.979C25.953 16.698 24.858 16.872 24 17.208C24.426 19.365 25.659 22.023 27 24.375L27.126 24.153C28.419 21.858 29.586 19.299 30 17.208C29.142 16.872 28.047 16.698 27.021 16.674H27ZM26.916 6C20.229 6 13.338 12.987 13.506 19.728C13.722 25.68 18.276 32.649 23.139 39.84C19.836 43.839 11.931 51.651 7.065 55.995L10.485 63C10.485 63 22.362 52.083 27 45.876L27.111 46.023C31.824 52.254 43.515 63 43.515 63L46.935 55.995C42.069 51.651 34.164 43.839 30.861 39.84C35.721 32.649 40.275 25.68 40.494 19.728C40.659 12.987 33.771 6 27.084 6H26.916ZM26.898 33.66C24.675 30.234 18.426 21.837 18.426 17.004C18.426 12.318 22.365 10.998 27 10.998H27.108C31.698 11.019 35.574 12.354 35.574 17.004C35.574 21.915 29.124 30.501 27 33.819L26.898 33.66Z" fill="white"/>
</svg>
