<svg width="72" height="72" viewBox="0 0 72 72" fill="none" xmlns="http://www.w3.org/2000/svg">
<path fill-rule="evenodd" clip-rule="evenodd" d="M26.448 3.963C28.893 1.515 32.271 0 36 0C39.753 0 43.152 1.536 45.6 4.014C57.768 4.938 62.661 9.231 67.746 29.472C69.738 30.861 72 33.78 72 39.939C72 45.234 69.042 51.912 62.583 54.657C55.539 65.85 46.131 72 36 72C25.869 72 16.461 65.85 9.414 54.657C2.955 51.912 0 45.234 0 39.939C0 33.78 2.259 30.861 4.251 29.472C9.447 9.135 14.391 4.833 26.448 3.963ZM43.2 54H28.8C28.812 54.036 30.846 59.652 36 59.652C41.346 59.652 43.188 54.036 43.2 54ZM58.905 21H47.223C44.802 24.618 40.677 27 36 27C31.323 27 27.198 24.618 24.777 21H13.008C12.342 22.893 11.772 24.912 11.268 27C10.731 29.238 14.16 29.862 14.019 32.199C13.887 34.365 11.739 35.058 9.756 34.182C9.204 33.936 8.349 33.945 7.737 34.341C4.737 36.294 5.058 46.893 12.399 49.377C15.399 50.394 20.136 59.46 25.263 50.673C27.036 47.637 32.628 47.295 36 49.707C39.369 47.295 44.964 47.637 46.734 50.673C51.861 59.46 56.598 50.394 59.598 49.377C66.942 46.893 67.26 36.294 64.26 34.341C63.555 33.885 62.667 33.996 62.244 34.182C60.261 35.061 58.164 34.464 58.122 32.295C58.074 29.841 61.464 29.682 60.792 27C60.288 24.993 59.625 22.932 58.905 21ZM47.25 27C43.878 27 40.968 28.887 39.429 31.638C38.31 31.29 37.197 31.116 36 31.116C34.803 31.116 33.69 31.29 32.571 31.638C31.032 28.887 28.122 27 24.75 27C19.788 27 15.75 31.038 15.75 36C15.75 40.962 19.788 45 24.75 45C28.443 45 31.605 42.756 32.991 39.567C33.726 37.869 34.173 35.664 36 35.664C37.827 35.664 38.274 37.869 39.009 39.567C40.395 42.756 43.557 45 47.25 45C52.212 45 56.25 40.962 56.25 36C56.25 31.038 52.212 27 47.25 27ZM47.25 40.5C44.766 40.5 42.75 38.484 42.75 36C42.75 33.516 44.766 31.5 47.25 31.5C49.734 31.5 51.75 33.516 51.75 36C51.75 38.484 49.734 40.5 47.25 40.5ZM24.75 40.5C22.266 40.5 20.25 38.484 20.25 36C20.25 33.516 22.266 31.5 24.75 31.5C27.234 31.5 29.25 33.516 29.25 36C29.25 38.484 27.234 40.5 24.75 40.5ZM36 6C40.14 6 43.5 9.36 43.5 13.5C43.5 17.64 40.14 21 36 21C31.86 21 28.5 17.64 28.5 13.5C28.5 9.36 31.86 6 36 6Z" fill="white"/>
</svg>
